<svg xmlns="http://www.w3.org/2000/svg" width="32" height="32" id="webpage"><path fill="#373449" d="M1 3h30c.553 0 1 .485 1 1.084v23.832c0 .6-.447 1.084-1 1.084H1c-.553 0-1-.485-1-1.084V4.084C0 3.486.447 3 1 3z"></path><path fill="#f7f7f8" d="M1.938 7h28.125c.518 0 .938.392.938.875v19.25c0 .483-.42.875-.938.875H1.938C1.42 28 1 27.608 1 27.125V7.875C1 7.392 1.42 7 1.938 7z"></path><path fill="#ef4c45" d="M30 5a1 1 0 1 1-2 0 1 1 0 1 1 2 0z"></path><path fill="#eff0f2" d="M27 5a1 1 0 1 1-2 0 1 1 0 1 1 2 0zm-3 0a1 1 0 1 1-2 0 1 1 0 1 1 2 0z"></path><path fill="#3bc689" d="M3.038 8.992h12v12h-12z"></path><path fill="#216d55" d="M17.038 8.992h11.968v1H17.038z"></path><path fill="#bdc1cb" d="M17.038 10.992h12v1h-12zM17.038 14.992h12v1h-12zM17.038 12.992h12v1h-12z"></path><path fill="#216d55" d="M8.656 14.137 4.163 19.15h.031a.484.484 0 0 0-.156.344.5.5 0 0 0 .5.5H13.538a.5.5 0 0 0 .5-.5.484.484 0 0 0-.156-.344h.031L9.404 14.12c-.261-.262-.586-.145-.748.017z"></path><path fill="#f7f7f8" d="M6.983 11.984a.983.983 0 1 1-1.966 0 .983.983 0 0 1 1.966 0z"></path><path fill="#216d55" d="m12.656 15.164-4.33 4.831c1.862 0 3.42.01 5.712 0v-4l-.681-.807c-.262-.263-.539-.185-.701-.02z"></path><path fill="#bdc1cb" d="M17.038 16.992h12v1h-12zM17.038 18.992h6.968v1h-6.968zM3 22.992h26v1H3zM3 24.992h26v1H3z"></path></svg>